<?xml version="1.0" encoding="us-ascii" standalone="no"?><svg xmlns="http://www.w3.org/2000/svg" xmlns:xlink="http://www.w3.org/1999/xlink" contentStyleType="text/css" height="101px" preserveAspectRatio="none" style="width:177px;height:101px;background:#FFFFFF;" version="1.1" viewBox="0 0 177 101" width="177px" zoomAndPan="magnify"><defs/><g><!--class Global--><g id="elem_Global"><rect codeLine="1" fill="#F1F1F1" height="80.5938" id="Global" rx="2.5" ry="2.5" style="stroke:#181818;stroke-width:0.5;" width="156" x="7" y="7"/><ellipse cx="59.25" cy="23" fill="#ADD1B2" rx="11" ry="11" style="stroke:#181818;stroke-width:1.0;"/><path d="M62.2188,28.6406 Q61.6406,28.9375 61,29.0781 Q60.3594,29.2344 59.6563,29.2344 Q57.1563,29.2344 55.8281,27.5938 Q54.5156,25.9375 54.5156,22.8125 Q54.5156,19.6875 55.8281,18.0313 Q57.1563,16.375 59.6563,16.375 Q60.3594,16.375 61,16.5313 Q61.6563,16.6875 62.2188,16.9844 L62.2188,19.7031 Q61.5938,19.125 61,18.8594 Q60.4063,18.5781 59.7813,18.5781 Q58.4375,18.5781 57.75,19.6563 Q57.0625,20.7188 57.0625,22.8125 Q57.0625,24.9063 57.75,25.9844 Q58.4375,27.0469 59.7813,27.0469 Q60.4063,27.0469 61,26.7813 Q61.5938,26.5 62.2188,25.9219 L62.2188,28.6406 Z " fill="#000000"/><text fill="#000000" font-family="sans-serif" font-size="14" lengthAdjust="spacing" textLength="43" x="79.75" y="27.8467">Global</text><line style="stroke:#181818;stroke-width:0.5;" x1="8" x2="162" y1="39" y2="39"/><ellipse cx="18" cy="52.6484" fill="none" rx="3" ry="3" style="stroke:#038048;stroke-width:1.0;"/><text fill="#000000" font-family="sans-serif" font-size="14" lengthAdjust="spacing" text-decoration="underline" textLength="111" x="27" y="55.9951">Instance: Global</text><ellipse cx="18" cy="68.9453" fill="none" rx="3" ry="3" style="stroke:#038048;stroke-width:1.0;"/><text fill="#000000" font-family="sans-serif" font-size="14" lengthAdjust="spacing" textLength="130" x="27" y="72.292">ITerminal: Terminal</text><line style="stroke:#181818;stroke-width:0.5;" x1="8" x2="162" y1="79.5938" y2="79.5938"/></g><!--SRC=[Iyv9B2vMSC_9JqhCKQZcKW22wkAIn9BCv5e5RSyy83ClETKAgW0ihUqPabgKcvcNc6Eb06DnrG80]--></g></svg>