<?xml version="1.0" encoding="us-ascii" standalone="no"?><svg xmlns="http://www.w3.org/2000/svg" xmlns:xlink="http://www.w3.org/1999/xlink" contentStyleType="text/css" height="469px" preserveAspectRatio="none" style="width:841px;height:469px;background:#FFFFFF;" version="1.1" viewBox="0 0 841 469" width="841px" zoomAndPan="magnify"><defs/><g><g id="cluster_##2"><rect fill="none" height="80" rx="2.5" ry="2.5" style="stroke:#181818;stroke-width:1.0;" width="281" x="185.5" y="7"/></g><!--class ITerminal--><g id="elem_ITerminal"><rect codeLine="2" fill="#F1F1F1" height="48" id="ITerminal" rx="2.5" ry="2.5" style="stroke:#181818;stroke-width:0.5;" width="94" x="201.5" y="23"/><ellipse cx="216.5" cy="39" fill="#B4A7E5" rx="11" ry="11" style="stroke:#181818;stroke-width:1.0;"/><path d="M212.4219,34.7656 L212.4219,32.6094 L219.8125,32.6094 L219.8125,34.7656 L217.3438,34.7656 L217.3438,42.8438 L219.8125,42.8438 L219.8125,45 L212.4219,45 L212.4219,42.8438 L214.8906,42.8438 L214.8906,34.7656 L212.4219,34.7656 Z " fill="#000000"/><text fill="#000000" font-family="sans-serif" font-size="14" font-style="italic" lengthAdjust="spacing" textLength="62" x="230.5" y="43.8467">ITerminal</text><line style="stroke:#181818;stroke-width:0.5;" x1="202.5" x2="294.5" y1="55" y2="55"/><line style="stroke:#181818;stroke-width:0.5;" x1="202.5" x2="294.5" y1="63" y2="63"/></g><!--class ITerminalOut--><g id="elem_ITerminalOut"><rect codeLine="3" fill="#F1F1F1" height="48" id="ITerminalOut" rx="2.5" ry="2.5" style="stroke:#181818;stroke-width:0.5;" width="119" x="331" y="23"/><ellipse cx="346" cy="39" fill="#B4A7E5" rx="11" ry="11" style="stroke:#181818;stroke-width:1.0;"/><path d="M341.9219,34.7656 L341.9219,32.6094 L349.3125,32.6094 L349.3125,34.7656 L346.8438,34.7656 L346.8438,42.8438 L349.3125,42.8438 L349.3125,45 L341.9219,45 L341.9219,42.8438 L344.3906,42.8438 L344.3906,34.7656 L341.9219,34.7656 Z " fill="#000000"/><text fill="#000000" font-family="sans-serif" font-size="14" font-style="italic" lengthAdjust="spacing" textLength="87" x="360" y="43.8467">ITerminalOut</text><line style="stroke:#181818;stroke-width:0.5;" x1="332" x2="449" y1="55" y2="55"/><line style="stroke:#181818;stroke-width:0.5;" x1="332" x2="449" y1="63" y2="63"/></g><!--class VirtualTerminal--><g id="elem_VirtualTerminal"><rect codeLine="6" fill="#F1F1F1" height="178.375" id="VirtualTerminal" rx="2.5" ry="2.5" style="stroke:#181818;stroke-width:0.5;" width="323" x="7" y="283.85"/><ellipse cx="113.75" cy="299.85" fill="#ADD1B2" rx="11" ry="11" style="stroke:#181818;stroke-width:1.0;"/><path d="M116.7188,305.4906 Q116.1406,305.7875 115.5,305.9281 Q114.8594,306.0844 114.1563,306.0844 Q111.6563,306.0844 110.3281,304.4438 Q109.0156,302.7875 109.0156,299.6625 Q109.0156,296.5375 110.3281,294.8813 Q111.6563,293.225 114.1563,293.225 Q114.8594,293.225 115.5,293.3813 Q116.1563,293.5375 116.7188,293.8344 L116.7188,296.5531 Q116.0938,295.975 115.5,295.7094 Q114.9063,295.4281 114.2813,295.4281 Q112.9375,295.4281 112.25,296.5063 Q111.5625,297.5688 111.5625,299.6625 Q111.5625,301.7563 112.25,302.8344 Q112.9375,303.8969 114.2813,303.8969 Q114.9063,303.8969 115.5,303.6313 Q116.0938,303.35 116.7188,302.7719 L116.7188,305.4906 Z " fill="#000000"/><text fill="#000000" font-family="sans-serif" font-size="14" lengthAdjust="spacing" textLength="101" x="134.25" y="304.6967">VirtualTerminal</text><line style="stroke:#181818;stroke-width:0.5;" x1="8" x2="329" y1="315.85" y2="315.85"/><ellipse cx="18" cy="329.4984" fill="none" rx="3" ry="3" style="stroke:#038048;stroke-width:1.0;"/><text fill="#000000" font-family="sans-serif" font-size="14" lengthAdjust="spacing" textLength="183" x="27" y="332.8451">StdErr: ITerminalOut &#171;get&#187;</text><ellipse cx="18" cy="345.7953" fill="none" rx="3" ry="3" style="stroke:#038048;stroke-width:1.0;"/><text fill="#000000" font-family="sans-serif" font-size="14" lengthAdjust="spacing" textLength="221" x="27" y="349.142">StdErrLines: IList&lt;string&gt; &#171;get&#187;</text><ellipse cx="18" cy="362.0922" fill="none" rx="3" ry="3" style="stroke:#038048;stroke-width:1.0;"/><text fill="#000000" font-family="sans-serif" font-size="14" lengthAdjust="spacing" textLength="189" x="27" y="365.4389">StdOut: ITerminalOut &#171;get&#187;</text><ellipse cx="18" cy="378.3891" fill="none" rx="3" ry="3" style="stroke:#038048;stroke-width:1.0;"/><text fill="#000000" font-family="sans-serif" font-size="14" lengthAdjust="spacing" textLength="227" x="27" y="381.7357">StdOutLines: IList&lt;string&gt; &#171;get&#187;</text><ellipse cx="18" cy="394.6859" fill="none" rx="3" ry="3" style="stroke:#038048;stroke-width:1.0;"/><text fill="#000000" font-family="sans-serif" font-size="14" lengthAdjust="spacing" textLength="140" x="27" y="398.0326">Width: int &#171;get, set&#187;</text><ellipse cx="18" cy="410.9828" fill="none" rx="3" ry="3" style="stroke:#038048;stroke-width:1.0;"/><text fill="#000000" font-family="sans-serif" font-size="14" lengthAdjust="spacing" textLength="146" x="27" y="414.3295">Height: int &#171;get, set&#187;</text><ellipse cx="18" cy="427.2797" fill="none" rx="3" ry="3" style="stroke:#038048;stroke-width:1.0;"/><text fill="#000000" font-family="sans-serif" font-size="14" lengthAdjust="spacing" textLength="294" x="27" y="430.6264">ForegroundColor: ConsoleColor &#171;get, set&#187;</text><ellipse cx="18" cy="443.5766" fill="none" rx="3" ry="3" style="stroke:#038048;stroke-width:1.0;"/><text fill="#000000" font-family="sans-serif" font-size="14" lengthAdjust="spacing" textLength="297" x="27" y="446.9232">BackgroundColor: ConsoleColor &#171;get, set&#187;</text><line style="stroke:#181818;stroke-width:0.5;" x1="8" x2="329" y1="454.225" y2="454.225"/></g><!--class StdOutBase--><g id="elem_StdOutBase"><rect codeLine="16" fill="#F1F1F1" height="56.2656" id="StdOutBase" rx="2.5" ry="2.5" style="stroke:#181818;stroke-width:0.5;" width="115" x="353" y="150.29"/><ellipse cx="368" cy="170.4228" fill="#A9DCDF" rx="11" ry="11" style="stroke:#181818;stroke-width:1.0;"/><path d="M368.1094,165.7666 L366.9531,170.8447 L369.2813,170.8447 L368.1094,165.7666 Z M366.625,163.5322 L369.6094,163.5322 L372.9688,175.9228 L370.5156,175.9228 L369.75,172.8603 L366.4688,172.8603 L365.7188,175.9228 L363.2813,175.9228 L366.625,163.5322 Z " fill="#000000"/><text fill="#000000" font-family="sans-serif" font-size="12" font-style="italic" lengthAdjust="spacing" textLength="62" x="392.5" y="166.4287">&#171;internal&#187;</text><text fill="#000000" font-family="sans-serif" font-size="14" font-style="italic" lengthAdjust="spacing" textLength="83" x="382" y="182.2539">StdOutBase</text><line style="stroke:#181818;stroke-width:0.5;" x1="354" x2="467" y1="190.5556" y2="190.5556"/><line style="stroke:#181818;stroke-width:0.5;" x1="354" x2="467" y1="198.5556" y2="198.5556"/></g><!--class VirtualOutput--><g id="elem_VirtualOutput"><rect codeLine="17" fill="#F1F1F1" height="105.1563" id="VirtualOutput" rx="2.5" ry="2.5" style="stroke:#181818;stroke-width:0.5;" width="202" x="423.5" y="320.46"/><ellipse cx="475.25" cy="340.5928" fill="#ADD1B2" rx="11" ry="11" style="stroke:#181818;stroke-width:1.0;"/><path d="M478.2188,346.2334 Q477.6406,346.5303 477,346.6709 Q476.3594,346.8272 475.6563,346.8272 Q473.1563,346.8272 471.8281,345.1866 Q470.5156,343.5303 470.5156,340.4053 Q470.5156,337.2803 471.8281,335.6241 Q473.1563,333.9678 475.6563,333.9678 Q476.3594,333.9678 477,334.1241 Q477.6563,334.2803 478.2188,334.5772 L478.2188,337.2959 Q477.5938,336.7178 477,336.4522 Q476.4063,336.1709 475.7813,336.1709 Q474.4375,336.1709 473.75,337.2491 Q473.0625,338.3116 473.0625,340.4053 Q473.0625,342.4991 473.75,343.5772 Q474.4375,344.6397 475.7813,344.6397 Q476.4063,344.6397 477,344.3741 Q477.5938,344.0928 478.2188,343.5147 L478.2188,346.2334 Z " fill="#000000"/><text fill="#000000" font-family="sans-serif" font-size="12" font-style="italic" lengthAdjust="spacing" textLength="62" x="509.75" y="336.5987">&#171;internal&#187;</text><text fill="#000000" font-family="sans-serif" font-size="14" lengthAdjust="spacing" textLength="90" x="495.75" y="352.4239">VirtualOutput</text><line style="stroke:#181818;stroke-width:0.5;" x1="424.5" x2="624.5" y1="360.7256" y2="360.7256"/><ellipse cx="434.5" cy="374.3741" fill="none" rx="3" ry="3" style="stroke:#038048;stroke-width:1.0;"/><text fill="#000000" font-family="sans-serif" font-size="14" lengthAdjust="spacing" textLength="176" x="443.5" y="377.7207">Lines: List&lt;string&gt; &#171;get&#187;</text><line style="stroke:#181818;stroke-width:0.5;" x1="424.5" x2="624.5" y1="385.0225" y2="385.0225"/><ellipse cx="434.5" cy="398.6709" fill="#84BE84" rx="3" ry="3" style="stroke:#038048;stroke-width:1.0;"/><text fill="#000000" font-family="sans-serif" font-size="14" lengthAdjust="spacing" textLength="117" x="443.5" y="402.0176">Write(line: string)</text><ellipse cx="434.5" cy="414.9678" fill="#84BE84" rx="3" ry="3" style="stroke:#038048;stroke-width:1.0;"/><text fill="#000000" font-family="sans-serif" font-size="14" lengthAdjust="spacing" textLength="145" x="443.5" y="418.3145">WriteLine(line: string)</text></g><!--class Format--><g id="elem_Format"><rect codeLine="22" fill="#F1F1F1" height="88.8594" id="Format" rx="2.5" ry="2.5" style="stroke:#181818;stroke-width:0.5;" width="142" x="676.5" y="134"/><ellipse cx="714.9" cy="154.1328" fill="#ADD1B2" rx="11" ry="11" style="stroke:#181818;stroke-width:1.0;"/><path d="M717.8688,159.7734 Q717.2906,160.0703 716.65,160.2109 Q716.0094,160.3672 715.3063,160.3672 Q712.8063,160.3672 711.4781,158.7266 Q710.1656,157.0703 710.1656,153.9453 Q710.1656,150.8203 711.4781,149.1641 Q712.8063,147.5078 715.3063,147.5078 Q716.0094,147.5078 716.65,147.6641 Q717.3063,147.8203 717.8688,148.1172 L717.8688,150.8359 Q717.2438,150.2578 716.65,149.9922 Q716.0563,149.7109 715.4313,149.7109 Q714.0875,149.7109 713.4,150.7891 Q712.7125,151.8516 712.7125,153.9453 Q712.7125,156.0391 713.4,157.1172 Q714.0875,158.1797 715.4313,158.1797 Q716.0563,158.1797 716.65,157.9141 Q717.2438,157.6328 717.8688,157.0547 L717.8688,159.7734 Z " fill="#000000"/><text fill="#000000" font-family="sans-serif" font-size="12" font-style="italic" lengthAdjust="spacing" textLength="62" x="732.1" y="150.1387">&#171;internal&#187;</text><text fill="#000000" font-family="sans-serif" font-size="14" lengthAdjust="spacing" textLength="48" x="739.1" y="165.9639">Format</text><line style="stroke:#181818;stroke-width:0.5;" x1="677.5" x2="817.5" y1="174.2656" y2="174.2656"/><ellipse cx="687.5" cy="187.9141" fill="none" rx="3" ry="3" style="stroke:#038048;stroke-width:1.0;"/><text fill="#000000" font-family="sans-serif" font-size="14" font-style="italic" lengthAdjust="spacing" textLength="110" x="696.5" y="191.2607">Width: int &#171;get&#187;</text><ellipse cx="687.5" cy="204.2109" fill="none" rx="3" ry="3" style="stroke:#038048;stroke-width:1.0;"/><text fill="#000000" font-family="sans-serif" font-size="14" font-style="italic" lengthAdjust="spacing" textLength="116" x="696.5" y="207.5576">Height: int &#171;get&#187;</text><line style="stroke:#181818;stroke-width:0.5;" x1="677.5" x2="817.5" y1="214.8594" y2="214.8594"/></g><!--class VirtualFormat--><g id="elem_VirtualFormat"><rect codeLine="26" fill="#F1F1F1" height="121.4531" id="VirtualFormat" rx="2.5" ry="2.5" style="stroke:#181818;stroke-width:0.5;" width="174" x="660.5" y="312.32"/><ellipse cx="698.9" cy="332.4528" fill="#ADD1B2" rx="11" ry="11" style="stroke:#181818;stroke-width:1.0;"/><path d="M701.8688,338.0934 Q701.2906,338.3903 700.65,338.5309 Q700.0094,338.6872 699.3063,338.6872 Q696.8063,338.6872 695.4781,337.0466 Q694.1656,335.3903 694.1656,332.2653 Q694.1656,329.1403 695.4781,327.4841 Q696.8063,325.8278 699.3063,325.8278 Q700.0094,325.8278 700.65,325.9841 Q701.3063,326.1403 701.8688,326.4372 L701.8688,329.1559 Q701.2438,328.5778 700.65,328.3122 Q700.0563,328.0309 699.4313,328.0309 Q698.0875,328.0309 697.4,329.1091 Q696.7125,330.1716 696.7125,332.2653 Q696.7125,334.3591 697.4,335.4372 Q698.0875,336.4997 699.4313,336.4997 Q700.0563,336.4997 700.65,336.2341 Q701.2438,335.9528 701.8688,335.3747 L701.8688,338.0934 Z " fill="#000000"/><text fill="#000000" font-family="sans-serif" font-size="12" font-style="italic" lengthAdjust="spacing" textLength="62" x="732.1" y="328.4587">&#171;internal&#187;</text><text fill="#000000" font-family="sans-serif" font-size="14" lengthAdjust="spacing" textLength="90" x="718.1" y="344.2839">VirtualFormat</text><line style="stroke:#181818;stroke-width:0.5;" x1="661.5" x2="833.5" y1="352.5856" y2="352.5856"/><ellipse cx="671.5" cy="366.2341" fill="none" rx="3" ry="3" style="stroke:#038048;stroke-width:1.0;"/><text fill="#000000" font-family="sans-serif" font-size="14" lengthAdjust="spacing" textLength="110" x="680.5" y="369.5807">Width: int &#171;get&#187;</text><ellipse cx="671.5" cy="382.5309" fill="none" rx="3" ry="3" style="stroke:#038048;stroke-width:1.0;"/><text fill="#000000" font-family="sans-serif" font-size="14" lengthAdjust="spacing" textLength="116" x="680.5" y="385.8776">Height: int &#171;get&#187;</text><line style="stroke:#181818;stroke-width:0.5;" x1="661.5" x2="833.5" y1="393.1794" y2="393.1794"/><ellipse cx="671.5" cy="406.8278" fill="#84BE84" rx="3" ry="3" style="stroke:#038048;stroke-width:1.0;"/><text fill="#000000" font-family="sans-serif" font-size="14" lengthAdjust="spacing" textLength="135" x="680.5" y="410.1745">SetWidth(width: int)</text><ellipse cx="671.5" cy="423.1247" fill="#84BE84" rx="3" ry="3" style="stroke:#038048;stroke-width:1.0;"/><text fill="#000000" font-family="sans-serif" font-size="14" lengthAdjust="spacing" textLength="148" x="680.5" y="426.4714">SetHeight(height: int)</text></g><!--reverse link ITerminal to VirtualTerminal--><g id="link_ITerminal_VirtualTerminal"><path codeLine="33" d="M237.72,91.67 C225.63,140.62 205.72,221.26 190.35,283.53 " fill="none" id="ITerminal-backto-VirtualTerminal" style="stroke:#181818;stroke-width:1.0;stroke-dasharray:7.0,7.0;"/><polygon fill="none" points="231.16,90.04,242.75,72.3,244.75,93.4,231.16,90.04" style="stroke:#181818;stroke-width:1.0;"/></g><!--reverse link ITerminalOut to StdOutBase--><g id="link_ITerminalOut_StdOutBase"><path codeLine="34" d="M397.29,91.97 C400.27,111.24 403.68,133.26 406.28,150.12 " fill="none" id="ITerminalOut-backto-StdOutBase" style="stroke:#181818;stroke-width:1.0;stroke-dasharray:7.0,7.0;"/><polygon fill="none" points="390.26,93.27,394.12,72.43,404.09,91.13,390.26,93.27" style="stroke:#181818;stroke-width:1.0;"/></g><!--reverse link VirtualTerminal to VirtualOutput--><g id="link_VirtualTerminal_VirtualOutput"><path codeLine="36" d="M344.08,373.04 C371.21,373.04 398.4,373.04 423.16,373.04 " fill="none" id="VirtualTerminal-backto-VirtualOutput" style="stroke:#181818;stroke-width:1.0;"/><polygon fill="#181818" points="331.35,373.04,337.35,377.04,343.35,373.04,337.35,369.04,331.35,373.04" style="stroke:#181818;stroke-width:1.0;"/><text fill="#000000" font-family="sans-serif" font-size="13" lengthAdjust="spacing" textLength="57" x="348.25" y="351.1069">&#171;stdout&#187;</text><text fill="#000000" font-family="sans-serif" font-size="13" lengthAdjust="spacing" textLength="54" x="349.75" y="366.2397">&#171;stderr&#187;</text></g><!--reverse link StdOutBase to VirtualOutput--><g id="link_StdOutBase_VirtualOutput"><path codeLine="38" d="M437.39,224.87 C454.32,253.47 476.22,290.46 493.82,320.2 " fill="none" id="StdOutBase-backto-VirtualOutput" style="stroke:#181818;stroke-width:1.0;"/><polygon fill="none" points="431,228.8,426.83,208.02,443.04,221.67,431,228.8" style="stroke:#181818;stroke-width:1.0;"/></g><!--reverse link VirtualOutput to VirtualFormat--><g id="link_VirtualOutput_VirtualFormat"><path codeLine="39" d="M639.87,373.04 C646.63,373.04 653.4,373.04 660.16,373.04 " fill="none" id="VirtualOutput-backto-VirtualFormat" style="stroke:#181818;stroke-width:1.0;"/><polygon fill="#181818" points="626.98,373.04,632.98,377.04,638.98,373.04,632.98,369.04,626.98,373.04" style="stroke:#181818;stroke-width:1.0;"/></g><!--reverse link Format to VirtualFormat--><g id="link_Format_VirtualFormat"><path codeLine="40" d="M747.5,244.08 C747.5,266.05 747.5,290.49 747.5,312.08 " fill="none" id="Format-backto-VirtualFormat" style="stroke:#181818;stroke-width:1.0;"/><polygon fill="none" points="740.5,244.13,747.5,224.13,754.5,244.13,740.5,244.13" style="stroke:#181818;stroke-width:1.0;"/></g><!--SRC=[ZPFDRi8m3CVlUOeSOQmyG5Ln06tQ9AGTcBRBBbdhbMWXcHnNEq3VVQQXa1OAwwcrV_xwsqN8ITdIWDmARGdmI-KWdry1DzegSydsKf6eXSYDybw-QQHAcTR7MIG_anKL3uXf9qXcMGaqcyN4KblmZ2srfymJQblEpZYElP69RRSplUk2rgdaYOBzNlgJymbqkQOXxwD3AD5LjbWuutYkXRFU6MY-Bl1pbN__aw-5-kHsLKuoA1h6cIiF33Royz0CTlHcugVHuGIqqX-4kA83QeAHOIoL0HX7ZdrupraVQhCA6tMnwBQTeJwN-L0sHix4RdJe33XSQwZ0P0NKk4Q_Hs0yiDme9FX6wnEo7rWSpqrcksandVOFNNJlSSz4cnEY_r_S9PZqbfToBvuALt4x7xPv1qHkJSGdi4kANg3efeap1zL4AruS6sn_]--></g></svg>