<?xml version="1.0" encoding="us-ascii" standalone="no"?><svg xmlns="http://www.w3.org/2000/svg" xmlns:xlink="http://www.w3.org/1999/xlink" contentStyleType="text/css" height="280px" preserveAspectRatio="none" style="width:362px;height:280px;background:#FFFFFF;" version="1.1" viewBox="0 0 362 280" width="362px" zoomAndPan="magnify"><defs/><g><!--class ITerminal--><g id="elem_ITerminal"><rect codeLine="1" fill="#F1F1F1" height="48" id="ITerminal" rx="2.5" ry="2.5" style="stroke:#181818;stroke-width:0.5;" width="94" x="26.5" y="7"/><ellipse cx="41.5" cy="23" fill="#B4A7E5" rx="11" ry="11" style="stroke:#181818;stroke-width:1.0;"/><path d="M37.4219,18.7656 L37.4219,16.6094 L44.8125,16.6094 L44.8125,18.7656 L42.3438,18.7656 L42.3438,26.8438 L44.8125,26.8438 L44.8125,29 L37.4219,29 L37.4219,26.8438 L39.8906,26.8438 L39.8906,18.7656 L37.4219,18.7656 Z " fill="#000000"/><text fill="#000000" font-family="sans-serif" font-size="14" font-style="italic" lengthAdjust="spacing" textLength="62" x="55.5" y="27.8467">ITerminal</text><line style="stroke:#181818;stroke-width:0.5;" x1="27.5" x2="119.5" y1="39" y2="39"/><line style="stroke:#181818;stroke-width:0.5;" x1="27.5" x2="119.5" y1="47" y2="47"/></g><!--class ITerminalOut--><g id="elem_ITerminalOut"><rect codeLine="2" fill="#F1F1F1" height="48" id="ITerminalOut" rx="2.5" ry="2.5" style="stroke:#181818;stroke-width:0.5;" width="119" x="235" y="7"/><ellipse cx="250" cy="23" fill="#B4A7E5" rx="11" ry="11" style="stroke:#181818;stroke-width:1.0;"/><path d="M245.9219,18.7656 L245.9219,16.6094 L253.3125,16.6094 L253.3125,18.7656 L250.8438,18.7656 L250.8438,26.8438 L253.3125,26.8438 L253.3125,29 L245.9219,29 L245.9219,26.8438 L248.3906,26.8438 L248.3906,18.7656 L245.9219,18.7656 Z " fill="#000000"/><text fill="#000000" font-family="sans-serif" font-size="14" font-style="italic" lengthAdjust="spacing" textLength="87" x="264" y="27.8467">ITerminalOut</text><line style="stroke:#181818;stroke-width:0.5;" x1="236" x2="353" y1="39" y2="39"/><line style="stroke:#181818;stroke-width:0.5;" x1="236" x2="353" y1="47" y2="47"/></g><!--class VirtualTerminal--><g id="elem_VirtualTerminal"><rect codeLine="3" fill="#F1F1F1" height="48" id="VirtualTerminal" rx="2.5" ry="2.5" style="stroke:#181818;stroke-width:0.5;" width="133" x="7" y="116"/><ellipse cx="22" cy="132" fill="#ADD1B2" rx="11" ry="11" style="stroke:#181818;stroke-width:1.0;"/><path d="M24.9688,137.6406 Q24.3906,137.9375 23.75,138.0781 Q23.1094,138.2344 22.4063,138.2344 Q19.9063,138.2344 18.5781,136.5938 Q17.2656,134.9375 17.2656,131.8125 Q17.2656,128.6875 18.5781,127.0313 Q19.9063,125.375 22.4063,125.375 Q23.1094,125.375 23.75,125.5313 Q24.4063,125.6875 24.9688,125.9844 L24.9688,128.7031 Q24.3438,128.125 23.75,127.8594 Q23.1563,127.5781 22.5313,127.5781 Q21.1875,127.5781 20.5,128.6563 Q19.8125,129.7188 19.8125,131.8125 Q19.8125,133.9063 20.5,134.9844 Q21.1875,136.0469 22.5313,136.0469 Q23.1563,136.0469 23.75,135.7813 Q24.3438,135.5 24.9688,134.9219 L24.9688,137.6406 Z " fill="#000000"/><text fill="#000000" font-family="sans-serif" font-size="14" lengthAdjust="spacing" textLength="101" x="36" y="136.8467">VirtualTerminal</text><line style="stroke:#181818;stroke-width:0.5;" x1="8" x2="139" y1="148" y2="148"/><line style="stroke:#181818;stroke-width:0.5;" x1="8" x2="139" y1="156" y2="156"/></g><!--class VirtualOutput--><g id="elem_VirtualOutput"><rect codeLine="4" fill="#F1F1F1" height="48" id="VirtualOutput" rx="2.5" ry="2.5" style="stroke:#181818;stroke-width:0.5;" width="122" x="233.5" y="116"/><ellipse cx="248.5" cy="132" fill="#ADD1B2" rx="11" ry="11" style="stroke:#181818;stroke-width:1.0;"/><path d="M251.4688,137.6406 Q250.8906,137.9375 250.25,138.0781 Q249.6094,138.2344 248.9063,138.2344 Q246.4063,138.2344 245.0781,136.5938 Q243.7656,134.9375 243.7656,131.8125 Q243.7656,128.6875 245.0781,127.0313 Q246.4063,125.375 248.9063,125.375 Q249.6094,125.375 250.25,125.5313 Q250.9063,125.6875 251.4688,125.9844 L251.4688,128.7031 Q250.8438,128.125 250.25,127.8594 Q249.6563,127.5781 249.0313,127.5781 Q247.6875,127.5781 247,128.6563 Q246.3125,129.7188 246.3125,131.8125 Q246.3125,133.9063 247,134.9844 Q247.6875,136.0469 249.0313,136.0469 Q249.6563,136.0469 250.25,135.7813 Q250.8438,135.5 251.4688,134.9219 L251.4688,137.6406 Z " fill="#000000"/><text fill="#000000" font-family="sans-serif" font-size="14" lengthAdjust="spacing" textLength="90" x="262.5" y="136.8467">VirtualOutput</text><line style="stroke:#181818;stroke-width:0.5;" x1="234.5" x2="354.5" y1="148" y2="148"/><line style="stroke:#181818;stroke-width:0.5;" x1="234.5" x2="354.5" y1="156" y2="156"/></g><!--class Format--><g id="elem_Format"><rect fill="#F1F1F1" height="48" id="Format" rx="2.5" ry="2.5" style="stroke:#181818;stroke-width:0.5;" width="80" x="254.5" y="225"/><ellipse cx="269.5" cy="241" fill="#ADD1B2" rx="11" ry="11" style="stroke:#181818;stroke-width:1.0;"/><path d="M272.4688,246.6406 Q271.8906,246.9375 271.25,247.0781 Q270.6094,247.2344 269.9063,247.2344 Q267.4063,247.2344 266.0781,245.5938 Q264.7656,243.9375 264.7656,240.8125 Q264.7656,237.6875 266.0781,236.0313 Q267.4063,234.375 269.9063,234.375 Q270.6094,234.375 271.25,234.5313 Q271.9063,234.6875 272.4688,234.9844 L272.4688,237.7031 Q271.8438,237.125 271.25,236.8594 Q270.6563,236.5781 270.0313,236.5781 Q268.6875,236.5781 268,237.6563 Q267.3125,238.7188 267.3125,240.8125 Q267.3125,242.9063 268,243.9844 Q268.6875,245.0469 270.0313,245.0469 Q270.6563,245.0469 271.25,244.7813 Q271.8438,244.5 272.4688,243.9219 L272.4688,246.6406 Z " fill="#000000"/><text fill="#000000" font-family="sans-serif" font-size="14" lengthAdjust="spacing" textLength="48" x="283.5" y="245.8467">Format</text><line style="stroke:#181818;stroke-width:0.5;" x1="255.5" x2="333.5" y1="257" y2="257"/><line style="stroke:#181818;stroke-width:0.5;" x1="255.5" x2="333.5" y1="265" y2="265"/></g><!--reverse link ITerminal to VirtualTerminal--><g id="link_ITerminal_VirtualTerminal"><path codeLine="6" d="M73.5,76.17 C73.5,89.68 73.5,104.01 73.5,115.57 " fill="none" id="ITerminal-backto-VirtualTerminal" style="stroke:#181818;stroke-width:1.0;stroke-dasharray:7.0,7.0;"/><polygon fill="none" points="66.5,76.48,73.5,56.48,80.5,76.48,66.5,76.48" style="stroke:#181818;stroke-width:1.0;"/></g><!--reverse link ITerminalOut to VirtualOutput--><g id="link_ITerminalOut_VirtualOutput"><path codeLine="7" d="M294.5,76.17 C294.5,89.68 294.5,104.01 294.5,115.57 " fill="none" id="ITerminalOut-backto-VirtualOutput" style="stroke:#181818;stroke-width:1.0;stroke-dasharray:7.0,7.0;"/><polygon fill="none" points="287.5,76.48,294.5,56.48,301.5,76.48,287.5,76.48" style="stroke:#181818;stroke-width:1.0;"/></g><!--reverse link VirtualTerminal to VirtualOutput--><g id="link_VirtualTerminal_VirtualOutput"><path codeLine="8" d="M154.18,140 C180.23,140 208.67,140 233.1,140 " fill="none" id="VirtualTerminal-backto-VirtualOutput" style="stroke:#181818;stroke-width:1.0;"/><polygon fill="#181818" points="141.41,140,147.41,144,153.41,140,147.41,136,141.41,140" style="stroke:#181818;stroke-width:1.0;"/><text fill="#000000" font-family="sans-serif" font-size="13" lengthAdjust="spacing" textLength="57" x="158.25" y="118.0669">&#171;stdout&#187;</text><text fill="#000000" font-family="sans-serif" font-size="13" lengthAdjust="spacing" textLength="54" x="159.75" y="133.1997">&#171;stderr&#187;</text></g><!--reverse link VirtualOutput to Format--><g id="link_VirtualOutput_Format"><path codeLine="10" d="M294.5,178.41 C294.5,193.77 294.5,211.06 294.5,224.57 " fill="none" id="VirtualOutput-backto-Format" style="stroke:#181818;stroke-width:1.0;"/><polygon fill="#181818" points="294.5,165.48,290.5,171.48,294.5,177.48,298.5,171.48,294.5,165.48" style="stroke:#181818;stroke-width:1.0;"/></g><!--SRC=[oymhIIrAIqnELV0CIItApSnBpE7An1JpBotXIiv9B2vM2CiiAYbDp84hHX45AYi0gkI2wrEmgT5BqSFGX6mkgXAe2MWQ5BHqYtHHbIXOATZO59Uav9UMsDd5v87PgKL5TdPSNAZgj7HJT1NSyejo4qi0]--></g></svg>